{
  "accessors": [
    {
      "bufferView": 2,
      "componentType": 5126,
      "count": 2093,
      "max": [
        37.524795532226562,
        97.409820556640625,
        30.594955444335938
      ],
      "min": [
        -50.947074890136719,
        0.0226593017578125,
        3.814697265625e-06
      ],
      "type": "VEC3"
    },
    {
      "bufferView": 2,
      "byteOffset": 25116,
      "componentType": 5126,
      "count": 2093,
      "max": [
        0.91571605205535889,
        0.91096293926239014,
        1
      ],
      "min": [
        -0.91485476493835449,
        -0.91096246242523193,
        -1
      ],
      "type": "VEC3"
    },
    {
      "bufferView": 3,
      "componentType": 5126,
      "count": 2093,
      "max": [
        0.97404718399047852,
        1,
        1,
        1
      ],
      "min": [
        -0.91544049978256226,
        -0.91571134328842163,
        -1,
        -1
      ],
      "type": "VEC4"
    },
    {
      "bufferView": 1,
      "componentType": 5126,
      "count": 2093,
      "max": [
        0.99532079696655273,
        0.99489283561706543
      ],
      "min": [
        0.0022386522032320499,
        0.0056251692585647106
      ],
      "type": "VEC2"
    },
    {
      "bufferView": 1,
      "byteOffset": 16744,
      "componentType": 5126,
      "count": 2093,
      "max": [
        0.99532079696655273,
        0.99489283561706543
      ],
      "min": [
        0.0022386522032320499,
        0.0056251692585647106
      ],
      "type": "VEC2"
    },
    {
      "bufferView": 0,
      "componentType": 5125,
      "count": 2181,
      "max": [
        2092
      ],
      "min": [
        0
      ],
      "type": "SCALAR"
    }
  ],
  "asset": {
    "extras": {
      "author": "Karpulya (https://sketchfab.com/Karpulya)",
      "license": "CC-BY-4.0 (http://creativecommons.org/licenses/by/4.0/)",
      "source": "https://sketchfab.com/3d-models/palazzo-cita-c66e34d04dde428c8f26ad672716d1d3",
      "title": "Palazzo Cita"
    },
    "generator": "Sketchfab-6.43.0",
    "version": "2.0"
  },
  "bufferViews": [
    {
      "buffer": 0,
      "byteLength": 8724,
      "byteOffset": 0,
      "name": "floatBufferViews",
      "target": 34963
    },
    {
      "buffer": 0,
      "byteLength": 33488,
      "byteOffset": 8724,
      "byteStride": 8,
      "name": "floatBufferViews",
      "target": 34962
    },
    {
      "buffer": 0,
      "byteLength": 50232,
      "byteOffset": 42212,
      "byteStride": 12,
      "name": "floatBufferViews",
      "target": 34962
    },
    {
      "buffer": 0,
      "byteLength": 33488,
      "byteOffset": 92444,
      "byteStride": 16,
      "name": "floatBufferViews",
      "target": 34962
    }
  ],
  "buffers": [
    {
      "byteLength": 125932,
      "uri": "scene.bin"
    }
  ],
  "extensionsRequired": [
    "KHR_materials_pbrSpecularGlossiness"
  ],
  "extensionsUsed": [
    "KHR_materials_pbrSpecularGlossiness"
  ],
  "images": [
    {
      "uri": "textures/material_diffuse.png"
    },
    {
      "uri": "textures/material_specularGlossiness.png"
    }
  ],
  "materials": [
    {
      "alphaMode": "BLEND",
      "doubleSided": true,
      "emissiveFactor": [
        0,
        0,
        0
      ],
      "extensions": {
        "KHR_materials_pbrSpecularGlossiness": {
          "diffuseFactor": [
            1,
            1,
            1,
            1
          ],
          "diffuseTexture": {
            "index": 0,
            "texCoord": 0
          },
          "glossinessFactor": 0.10702864035024488,
          "specularFactor": [
            1,
            1,
            1
          ],
          "specularGlossinessTexture": {
            "index": 1,
            "texCoord": 0
          }
        }
      },
      "name": "material"
    }
  ],
  "meshes": [
    {
      "name": "S_S_0",
      "primitives": [
        {
          "attributes": {
            "NORMAL": 1,
            "POSITION": 0,
            "TANGENT": 2,
            "TEXCOORD_0": 3,
            "TEXCOORD_1": 4
          },
          "indices": 5,
          "material": 0,
          "mode": 4
        }
      ]
    }
  ],
  "nodes": [
    {
      "children": [
        1
      ],
      "name": "RootNode (gltf orientation matrix)",
      "rotation": [
        -0.70710678118654746,
        -0,
        -0,
        0.70710678118654757
      ]
    },
    {
      "children": [
        2
      ],
      "name": "RootNode (model correction matrix)"
    },
    {
      "children": [
        3
      ],
      "matrix": [
        1,
        0,
        0,
        0,
        0,
        0,
        1,
        0,
        0,
        -1,
        0,
        0,
        0,
        0,
        0,
        1
      ],
      "name": "756650184e664d6f86862adf436e276e.fbx"
    },
    {
      "children": [
        4
      ],
      "name": "RootNode"
    },
    {
      "children": [
        5
      ],
      "matrix": [
        0.96598533588293312,
        7.3351657676327088e-09,
        -0.0053263939828942612,
        0,
        -0.0054256429376136651,
        -3.40947715480673e-09,
        -0.98398494972460071,
        0,
        -7.6123287942250761e-09,
        1,
        -3.4229947765140878e-09,
        0,
        0,
        0,
        0,
        1
      ],
      "name": "S"
    },
    {
      "mesh": 0,
      "name": "S_S_0"
    }
  ],
  "samplers": [
    {
      "magFilter": 9729,
      "minFilter": 9987,
      "wrapS": 10497,
      "wrapT": 10497
    }
  ],
  "scene": 0,
  "scenes": [
    {
      "name": "OSG_Scene",
      "nodes": [
        0
      ]
    }
  ],
  "textures": [
    {
      "sampler": 0,
      "source": 0
    },
    {
      "sampler": 0,
      "source": 1
    }
  ]
}

